<svg width="22" height="22" viewBox="0 0 22 22" fill="none" xmlns="http://www.w3.org/2000/svg">
<g filter="url(#filter0_b_3_835)">
<path d="M2.00002 12C2.00002 6.48565 6.48565 2.00002 12 2.00002C17.5143 2.00002 22 6.48565 22 12C22 17.5143 17.5143 22 12 22C6.48565 22 2.00002 17.5143 2.00002 12ZM3.44813 12C3.44813 16.716 7.28486 20.5528 12 20.5528C16.716 20.5528 20.5528 16.716 20.5528 12C20.5528 7.28486 16.716 3.44813 12 3.44813C7.28486 3.44813 3.44813 7.28486 3.44813 12ZM8.19027 15.6522C8.05347 15.4659 8.01477 15.231 8.08497 15.0087L9.62218 10.0965C9.69328 9.87058 9.87058 9.69328 10.0965 9.62218L15.0087 8.08497C15.0807 8.06247 15.1554 8.05077 15.2283 8.05077C15.4551 8.05077 15.6729 8.16237 15.8097 8.34867C15.9465 8.53497 15.9852 8.76897 15.9159 8.99218L14.3787 13.9035C14.3076 14.1294 14.1294 14.3076 13.9035 14.3787L8.99218 15.9159C8.91927 15.9384 8.84547 15.9501 8.77167 15.9501C8.54487 15.9501 8.32797 15.8385 8.19027 15.6522ZM10.8903 10.8903L9.87868 14.1204L13.1097 13.1097L14.1204 9.87868L10.8903 10.8903Z" fill="#200E32"/>
</g>
<defs>
<filter id="filter0_b_3_835" x="-7.98154" y="-7.98154" width="39.9631" height="39.9631" filterUnits="userSpaceOnUse" color-interpolation-filters="sRGB">
<feFlood flood-opacity="0" result="BackgroundImageFix"/>
<feGaussianBlur in="BackgroundImageFix" stdDeviation="4.99073"/>
<feComposite in2="SourceAlpha" operator="in" result="effect1_backgroundBlur_3_835"/>
<feBlend mode="normal" in="SourceGraphic" in2="effect1_backgroundBlur_3_835" result="shape"/>
</filter>
</defs>
</svg>
