<svg width="29" height="29" viewBox="0 0 29 29" fill="none" xmlns="http://www.w3.org/2000/svg">
<path d="M28.9999 14.4725C29.0147 22.4616 22.4995 28.9943 14.5105 28.9999C11.06 29.0023 7.89061 27.7995 5.39995 25.7894C4.75231 25.2667 4.70389 24.296 5.29243 23.7075L5.95118 23.0487C6.45453 22.5454 7.25811 22.4903 7.81577 22.9327C9.65078 24.3889 11.9731 25.258 14.5 25.258C20.4464 25.258 25.258 20.4455 25.258 14.5C25.258 8.55352 20.4455 3.74193 14.5 3.74193C11.6459 3.74193 9.05377 4.851 7.12907 6.66133L10.0965 9.62879C10.6859 10.2181 10.2685 11.2258 9.43509 11.2258H0.935482C0.418803 11.2258 0 10.807 0 10.2903V1.79069C0 0.95729 1.00763 0.53989 1.59698 1.12918L4.48365 4.01585C7.0868 1.52811 10.6149 0 14.5 0C22.4989 0 28.9851 6.47704 28.9999 14.4725ZM18.4224 19.0789L18.9968 18.3404C19.4726 17.7287 19.3624 16.847 18.7506 16.3713L16.3709 14.5204V8.41933C16.3709 7.64435 15.7427 7.01611 14.9677 7.01611H14.0322C13.2572 7.01611 12.629 7.64435 12.629 8.41933V16.3505L16.4533 19.325C17.0651 19.8008 17.9466 19.6906 18.4224 19.0789Z" fill="#C8C9CB"/>
</svg>
