<svg width="70" height="70" viewBox="0 0 70 70" fill="none" xmlns="http://www.w3.org/2000/svg">
<g filter="url(#filter0_d_3_845)">
<circle cx="30" cy="30" r="30" fill="#56D7BC"/>
<circle cx="30" cy="30" r="28" stroke="white" stroke-width="4"/>
</g>
<circle cx="30" cy="30" r="28" fill="#5D9CEC" stroke="white" stroke-width="4"/>
<path d="M29 21C29 20.4477 29.4477 20 30 20C30.5523 20 31 20.4477 31 21V39C31 39.5523 30.5523 40 30 40C29.4477 40 29 39.5523 29 39V21Z" fill="white"/>
<path d="M39 29C39.5523 29 40 29.4477 40 30C40 30.5523 39.5523 31 39 31H21C20.4477 31 20 30.5523 20 30C20 29.4477 20.4477 29 21 29H39Z" fill="white"/>
<defs>
<filter id="filter0_d_3_845" x="0" y="0" width="70" height="70" filterUnits="userSpaceOnUse" color-interpolation-filters="sRGB">
<feFlood flood-opacity="0" result="BackgroundImageFix"/>
<feColorMatrix in="SourceAlpha" type="matrix" values="0 0 0 0 0 0 0 0 0 0 0 0 0 0 0 0 0 0 127 0" result="hardAlpha"/>
<feOffset dx="5" dy="5"/>
<feGaussianBlur stdDeviation="2.5"/>
<feComposite in2="hardAlpha" operator="out"/>
<feColorMatrix type="matrix" values="0 0 0 0 0 0 0 0 0 0 0 0 0 0 0 0 0 0 0.0980392 0"/>
<feBlend mode="normal" in2="BackgroundImageFix" result="effect1_dropShadow_3_845"/>
<feBlend mode="normal" in="SourceGraphic" in2="effect1_dropShadow_3_845" result="shape"/>
</filter>
</defs>
</svg>
