<svg width="27" height="22" viewBox="0 0 27 22" fill="none" xmlns="http://www.w3.org/2000/svg">
<path d="M4.21875 16.875H0.843751C0.37776 16.875 -8.9407e-08 17.2528 0 17.7188V21.0938C0 21.5598 0.37776 21.9375 0.843751 21.9375H4.21875C4.68474 21.9375 5.0625 21.5598 5.0625 21.0938V17.7188C5.0625 17.2528 4.68474 16.875 4.21875 16.875ZM4.21875 0H0.843751C0.37776 0 -8.9407e-08 0.37776 0 0.84375V4.21875C0 4.68474 0.37776 5.0625 0.843751 5.0625H4.21875C4.68474 5.0625 5.0625 4.68474 5.0625 4.21875V0.84375C5.0625 0.37776 4.68474 0 4.21875 0ZM4.21875 8.43751H0.843751C0.37776 8.43751 -8.9407e-08 8.81527 0 9.28126V12.6563C0 13.1223 0.37776 13.5 0.843751 13.5H4.21875C4.68474 13.5 5.0625 13.1223 5.0625 12.6563V9.28126C5.0625 8.81527 4.68474 8.43751 4.21875 8.43751ZM26.1563 17.7188H9.28126C8.81527 17.7188 8.43751 18.0965 8.43751 18.5625V20.25C8.43751 20.716 8.81527 21.0938 9.28126 21.0938H26.1563C26.6223 21.0938 27 20.716 27 20.25V18.5625C27 18.0965 26.6223 17.7188 26.1563 17.7188ZM26.1563 0.84375H9.28126C8.81527 0.84375 8.43751 1.22151 8.43751 1.6875V3.375C8.43751 3.84099 8.81527 4.21875 9.28126 4.21875H26.1563C26.6223 4.21875 27 3.84099 27 3.375V1.6875C27 1.22151 26.6223 0.84375 26.1563 0.84375ZM26.1563 9.28126H9.28126C8.81527 9.28126 8.43751 9.65902 8.43751 10.125V11.8125C8.43751 12.2785 8.81527 12.6563 9.28126 12.6563H26.1563C26.6223 12.6563 27 12.2785 27 11.8125V10.125C27 9.65902 26.6223 9.28126 26.1563 9.28126Z" fill="#C8C9CB"/>
</svg>
