<svg width="70" height="70" viewBox="0 0 70 70" fill="none" xmlns="http://www.w3.org/2000/svg">
<g filter="url(#filter0_d_3_210)">
<circle cx="30.0001" cy="29.9999" r="29.9999" fill="#56D7BC"/>
<circle cx="30.0001" cy="29.9999" r="27.9999" stroke="white" stroke-width="4"/>
</g>
<circle cx="30.0001" cy="29.9999" r="27.9999" fill="#5D9CEC" stroke="white" stroke-width="4"/>
<path d="M29.0001 21C29.0001 20.4477 29.4478 20 30.0001 20C30.5524 20 31.0001 20.4477 31.0001 21V38.9999C31.0001 39.5522 30.5524 39.9999 30.0001 39.9999C29.4478 39.9999 29.0001 39.5522 29.0001 38.9999V21Z" fill="white"/>
<path d="M41.0001 50.9999C41.5523 50.9999 42 51.4476 42 51.9999C42 52.5522 41.5523 52.9999 41.0001 52.9999H23.0001C22.4478 52.9999 22.0001 52.5522 22.0001 51.9999C22.0001 51.4476 22.4478 50.9999 23.0001 50.9999H41.0001Z" fill="white"/>
<g filter="url(#filter1_d_3_210)">
<circle cx="29.9999" cy="29.9999" r="29.9999" fill="#56D7BC"/>
<circle cx="29.9999" cy="29.9999" r="27.9999" stroke="white" stroke-width="4"/>
</g>
<circle cx="29.9999" cy="29.9999" r="27.9999" fill="#5D9CEC" stroke="white" stroke-width="4"/>
<path d="M28.9999 21C28.9999 20.4477 29.4477 20 29.9999 20C30.5522 20 30.9999 20.4477 30.9999 21V38.9999C30.9999 39.5522 30.5522 39.9999 29.9999 39.9999C29.4477 39.9999 28.9999 39.5522 28.9999 38.9999V21Z" fill="white"/>
<path d="M38.9999 28.9999C39.5522 28.9999 39.9999 29.4477 39.9999 29.9999C39.9999 30.5522 39.5522 30.9999 38.9999 30.9999H21C20.4477 30.9999 20 30.5522 20 29.9999C20 29.4477 20.4477 28.9999 21 28.9999H38.9999Z" fill="white"/>
<defs>
<filter id="filter0_d_3_210" x="0.00012207" y="0" width="69.9999" height="69.9999" filterUnits="userSpaceOnUse" color-interpolation-filters="sRGB">
<feFlood flood-opacity="0" result="BackgroundImageFix"/>
<feColorMatrix in="SourceAlpha" type="matrix" values="0 0 0 0 0 0 0 0 0 0 0 0 0 0 0 0 0 0 127 0" result="hardAlpha"/>
<feOffset dx="5" dy="5"/>
<feGaussianBlur stdDeviation="2.5"/>
<feComposite in2="hardAlpha" operator="out"/>
<feColorMatrix type="matrix" values="0 0 0 0 0 0 0 0 0 0 0 0 0 0 0 0 0 0 0.0980392 0"/>
<feBlend mode="normal" in2="BackgroundImageFix" result="effect1_dropShadow_3_210"/>
<feBlend mode="normal" in="SourceGraphic" in2="effect1_dropShadow_3_210" result="shape"/>
</filter>
<filter id="filter1_d_3_210" x="0" y="0" width="69.9999" height="69.9999" filterUnits="userSpaceOnUse" color-interpolation-filters="sRGB">
<feFlood flood-opacity="0" result="BackgroundImageFix"/>
<feColorMatrix in="SourceAlpha" type="matrix" values="0 0 0 0 0 0 0 0 0 0 0 0 0 0 0 0 0 0 127 0" result="hardAlpha"/>
<feOffset dx="5" dy="5"/>
<feGaussianBlur stdDeviation="2.5"/>
<feComposite in2="hardAlpha" operator="out"/>
<feColorMatrix type="matrix" values="0 0 0 0 0 0 0 0 0 0 0 0 0 0 0 0 0 0 0.0980392 0"/>
<feBlend mode="normal" in2="BackgroundImageFix" result="effect1_dropShadow_3_210"/>
<feBlend mode="normal" in="SourceGraphic" in2="effect1_dropShadow_3_210" result="shape"/>
</filter>
</defs>
</svg>
