<svg width="36" height="36" viewBox="0 0 36 36" fill="none" xmlns="http://www.w3.org/2000/svg">
<path d="M22.5 18C22.5 20.4853 20.4853 22.5 18 22.5C15.5147 22.5 13.5 20.4853 13.5 18C13.5 15.5147 15.5147 13.5 18 13.5C20.4853 13.5 22.5 15.5147 22.5 18Z" stroke="#5D9CEC" stroke-width="3" stroke-linecap="round" stroke-linejoin="round"/>
<path d="M29.1 22.5C28.6915 23.4256 28.8875 24.5067 29.595 25.23L29.685 25.32C30.2483 25.8827 30.5649 26.6463 30.5649 27.4425C30.5649 28.2387 30.2483 29.0023 29.685 29.565C29.1223 30.1283 28.3587 30.4449 27.5625 30.4449C26.7663 30.4449 26.0027 30.1283 25.44 29.565L25.35 29.475C24.6267 28.7675 23.5456 28.5715 22.62 28.98C21.7133 29.3686 21.1239 30.2585 21.12 31.245V31.5C21.12 33.1569 19.7769 34.5 18.12 34.5C16.4631 34.5 15.12 33.1569 15.12 31.5V31.365C15.0962 30.349 14.4538 29.4508 13.5 29.1C12.5744 28.6915 11.4933 28.8875 10.77 29.595L10.68 29.685C10.1173 30.2483 9.35373 30.5649 8.5575 30.5649C7.76127 30.5649 6.99771 30.2483 6.435 29.685C5.87167 29.1223 5.55514 28.3587 5.55514 27.5625C5.55514 26.7663 5.87167 26.0027 6.435 25.44L6.525 25.35C7.2325 24.6267 7.42852 23.5456 7.02 22.62C6.6314 21.7133 5.74147 21.1239 4.755 21.12L4.5 21.12C2.84315 21.12 1.5 19.7769 1.5 18.12C1.5 16.4631 2.84315 15.12 4.5 15.12H4.635C5.651 15.0962 6.5492 14.4538 6.9 13.5C7.30852 12.5744 7.1125 11.4933 6.405 10.77L6.315 10.68C5.75167 10.1173 5.43514 9.35373 5.43514 8.5575C5.43514 7.76127 5.75167 6.99771 6.315 6.435C6.87771 5.87167 7.64127 5.55514 8.4375 5.55514C9.23373 5.55514 9.9973 5.87167 10.56 6.435L10.65 6.525C11.3733 7.2325 12.4544 7.42852 13.38 7.02H13.5C14.4067 6.6314 14.9961 5.74146 15 4.755V4.5C15 2.84315 16.3431 1.5 18 1.5C19.6569 1.5 21 2.84315 21 4.5V4.635C21.0039 5.62147 21.5933 6.5114 22.5 6.9C23.4256 7.30852 24.5067 7.1125 25.23 6.405L25.32 6.315C25.8827 5.75167 26.6463 5.43514 27.4425 5.43514C28.2387 5.43514 29.0023 5.75167 29.565 6.315C30.1283 6.87771 30.4449 7.64127 30.4449 8.4375C30.4449 9.23373 30.1283 9.9973 29.565 10.56L29.475 10.65C28.7675 11.3733 28.5715 12.4544 28.98 13.38L28.98 13.5C29.3686 14.4067 30.2585 14.9961 31.245 15H31.5C33.1569 15 34.5 16.3431 34.5 18C34.5 19.6569 33.1569 21 31.5 21H31.365C30.3785 21.0039 29.4886 21.5933 29.1 22.5Z" stroke="#5D9CEC" stroke-width="3" stroke-linecap="round" stroke-linejoin="round"/>
</svg>
